<svg width="20" height="20" viewBox="0 0 20 20" fill="none" xmlns="http://www.w3.org/2000/svg">
<g clip-path="url(#clip0_5_179)">
<path fill-rule="evenodd" clip-rule="evenodd" d="M6 9C6 7.34315 7.34315 6 9 6H17C18.6569 6 20 7.34315 20 9V17C20 18.6569 18.6569 20 17 20H9C7.34315 20 6 18.6569 6 17V9ZM9 8C8.44772 8 8 8.44772 8 9V17C8 17.5523 8.44772 18 9 18H17C17.5523 18 18 17.5523 18 17V9C18 8.44772 17.5523 8 17 8H9Z" fill="#AEC1CC"/>
<path fill-rule="evenodd" clip-rule="evenodd" d="M0 3C0 1.34315 1.34315 0 3 0H11C12.6569 0 14 1.34315 14 3V4C14 4.55228 13.5523 5 13 5C12.4477 5 12 4.55228 12 4V3C12 2.44772 11.5523 2 11 2H3C2.44772 2 2 2.44772 2 3V11C2 11.5523 2.44772 12 3 12H7C7.55228 12 8 12.4477 8 13C8 13.5523 7.55228 14 7 14H3C1.34315 14 0 12.6569 0 11V3Z" fill="#AEC1CC"/>
<path fill-rule="evenodd" clip-rule="evenodd" d="M16.7071 10.2929C17.0976 10.6834 17.0976 11.3166 16.7071 11.7071L12.7071 15.7071C12.3166 16.0976 11.6834 16.0976 11.2929 15.7071L9.29289 13.7071C8.90237 13.3166 8.90237 12.6834 9.29289 12.2929C9.68342 11.9024 10.3166 11.9024 10.7071 12.2929L12 13.5858L15.2929 10.2929C15.6834 9.90237 16.3166 9.90237 16.7071 10.2929Z" fill="#AEC1CC"/>
</g>
<defs>
<clipPath id="clip0_5_179">
<rect width="20" height="20" fill="white"/>
</clipPath>
</defs>
</svg>
