<svg width="20" height="20" viewBox="0 0 20 20" fill="none" xmlns="http://www.w3.org/2000/svg">
<path fill-rule="evenodd" clip-rule="evenodd" d="M10 17C6.13401 17 3 13.866 3 10C3 6.13401 6.13401 3 10 3V1C5.02944 1 1 5.02944 1 10C1 14.9706 5.02944 19 10 19C14.9706 19 19 14.9706 19 10H17C17 13.866 13.866 17 10 17Z" fill="#AEC1CC"/>
<path fill-rule="evenodd" clip-rule="evenodd" d="M17.4852 6.99839C17.9681 6.73042 18.1424 6.12171 17.8744 5.63879C17.0561 4.16404 15.836 2.94394 14.3612 2.1256C13.8783 1.85763 13.2696 2.03188 13.0016 2.5148C12.7336 2.99771 12.9079 3.60643 13.3908 3.8744C14.5384 4.51119 15.4888 5.46161 16.1256 6.6092C16.3936 7.09212 17.0023 7.26637 17.4852 6.99839Z" fill="#AEC1CC"/>
<path fill-rule="evenodd" clip-rule="evenodd" d="M10 1C10.5523 1 11 1.44772 11 2V9H18C18.5523 9 19 9.44772 19 10C19 10.5523 18.5523 11 18 11H12.135L15.7682 15.3598C16.1218 15.7841 16.0645 16.4147 15.6402 16.7682C15.2159 17.1218 14.5853 17.0645 14.2318 16.6402L9.9328 11.4814L5.20711 16.2071C4.81658 16.5976 4.18342 16.5976 3.79289 16.2071C3.40237 15.8166 3.40237 15.1834 3.79289 14.7929L9 9.58579V2C9 1.44772 9.44772 1 10 1Z" fill="#AEC1CC"/>
</svg>
