<svg width="663" height="256" viewBox="0 0 663 256" fill="none" xmlns="http://www.w3.org/2000/svg">
<path d="M41.5248 54.1799H46.9416V73.3974H36.9751V63.7161H3.75828V13.1427H13.7248V54.1799H31.5612V13.1427H41.5278V54.1799H41.5248ZM111.134 63.7161V32.8649L89.4694 63.7161H81.8864V13.1427H91.853V44.0634L113.517 13.1427H121.1V63.7161H111.137H111.134ZM205.364 24.3412C209.551 27.9532 211.648 32.6503 211.648 38.4294C211.648 44.2085 209.554 48.9056 205.364 52.5175C201.177 56.1295 195.567 58.2725 188.537 58.9465V64.7982H178.791V58.9465C171.712 58.2241 166.105 56.069 161.963 52.4813C157.821 48.8905 155.755 44.2085 155.755 38.4294C155.755 32.6503 157.824 27.9653 161.963 24.3775C166.105 20.7897 171.712 18.6347 178.791 17.9123V12.0606H188.537V17.9123C195.567 18.5833 201.174 20.7293 205.364 24.3412ZM188.537 49.8456C197.298 48.833 201.681 45.0276 201.681 38.4294C201.681 31.7828 197.301 27.9532 188.537 26.9406V49.8456ZM165.646 38.4294C165.646 45.0276 170.026 48.8089 178.791 49.773V27.0162C170.029 27.9774 165.646 31.7828 165.646 38.4294ZM265.076 13.1427C269.94 13.1427 274.03 14.7809 277.35 18.0543C280.671 21.3308 282.335 25.3508 282.335 30.1204C282.335 34.89 280.674 38.913 277.35 42.1864C274.03 45.4599 269.937 47.0981 265.076 47.0981H256.194V63.7131H246.23V13.1396H265.076V13.1427ZM265.076 37.7795C267.193 37.7795 268.952 37.0451 270.348 35.5761C271.743 34.1071 272.441 32.2875 272.441 30.1204C272.441 27.9048 271.743 26.0762 270.348 24.6314C268.952 23.1866 267.193 22.4642 265.076 22.4642H256.194V37.7795H265.076ZM359.306 57.1058C354.204 62.1867 347.992 64.7287 340.675 64.7287C333.358 64.7287 327.159 62.1867 322.08 57.1058C317.002 52.0249 314.464 45.7984 314.464 38.4294C314.464 31.0604 317.002 24.8339 322.08 19.753C327.159 14.6721 333.358 12.1301 340.675 12.1301C347.992 12.1301 354.204 14.6721 359.306 19.753C364.409 24.8339 366.962 31.0604 366.962 38.4294C366.962 45.7984 364.409 52.0249 359.306 57.1058ZM329.05 50.3141C332.18 53.4213 336.056 54.9749 340.675 54.9749C345.298 54.9749 349.174 53.4213 352.303 50.3141C355.433 47.2069 356.998 43.2473 356.998 38.4294C356.998 33.6145 355.433 29.6398 352.303 26.5084C349.174 23.377 345.298 21.8114 340.675 21.8114C336.053 21.8114 332.177 23.377 329.05 26.5084C325.92 29.6398 324.355 33.6114 324.355 38.4294C324.355 43.2473 325.92 47.2069 329.05 50.3141ZM432.815 37.4924C437.244 40.0434 439.459 43.8972 439.459 49.0507C439.459 53.3366 437.942 56.8519 434.909 59.5964C431.876 62.3408 428.145 63.7161 423.716 63.7161H402.269V13.1427H422.199C426.531 13.1427 430.181 14.4786 433.139 17.1536C436.099 19.8255 437.579 23.235 437.579 27.3759C437.579 31.5652 435.99 34.9383 432.815 37.4924ZM422.199 22.4642H412.236V33.5903H422.199C423.74 33.5903 425.027 33.0613 426.063 32.0004C427.099 30.9425 427.616 29.6186 427.616 28.0257C427.616 26.4359 427.111 25.112 426.099 24.0541C425.087 22.9962 423.788 22.4642 422.199 22.4642ZM423.716 54.3976C425.402 54.3976 426.797 53.8293 427.903 52.6989C429.009 51.5654 429.561 50.1327 429.561 48.4008C429.561 46.7172 429.009 45.3057 427.903 44.1753C426.797 43.0448 425.402 42.4766 423.716 42.4766H412.233V54.3976H423.716ZM516.789 57.1058C511.687 62.1867 505.475 64.7287 498.158 64.7287C490.841 64.7287 484.642 62.1867 479.563 57.1058C474.485 52.0249 471.947 45.7984 471.947 38.4294C471.947 31.0604 474.485 24.8339 479.563 19.753C484.642 14.6721 490.841 12.1301 498.158 12.1301C505.475 12.1301 511.684 14.6721 516.789 19.753C521.892 24.8339 524.445 31.0604 524.445 38.4294C524.445 45.7984 521.892 52.0249 516.789 57.1058ZM486.533 50.3141C489.663 53.4213 493.539 54.9749 498.161 54.9749C502.781 54.9749 506.66 53.4213 509.786 50.3141C512.916 47.2069 514.481 43.2473 514.481 38.4294C514.481 33.6145 512.916 29.6398 509.786 26.5084C506.657 23.377 502.781 21.8114 498.161 21.8114C493.539 21.8114 489.663 23.377 486.533 26.5084C483.403 29.6398 481.838 33.6114 481.838 38.4294C481.838 43.2473 483.403 47.2069 486.533 50.3141ZM568.849 8.52117V0.426758H589.791V8.52117H568.849ZM588.996 63.7191V32.8679L567.332 63.7191H559.752V13.1457H569.716V44.0665L591.38 13.1457H598.963V63.7191H588.999H588.996ZM46.289 153.19C41.1864 158.271 34.9751 160.813 27.658 160.813C20.341 160.813 14.1417 158.271 9.06324 153.19C3.98481 148.109 1.44711 141.883 1.44711 134.514C1.44711 127.145 3.98481 120.918 9.06324 115.837C14.1417 110.756 20.341 108.214 27.658 108.214C34.9751 108.214 41.1864 110.756 46.289 115.837C51.3916 120.918 53.9444 127.145 53.9444 134.514C53.9444 141.883 51.3916 148.109 46.289 153.19ZM16.0329 146.398C19.1627 149.505 23.0388 151.059 27.658 151.059C32.2803 151.059 36.1563 149.505 39.2862 146.398C42.416 143.291 43.9809 139.331 43.9809 134.514C43.9809 129.699 42.416 125.724 39.2862 122.593C36.1563 119.461 32.2803 117.895 27.658 117.895C23.0358 117.895 19.1597 119.461 16.0329 122.593C12.9031 125.724 11.3381 129.696 11.3381 134.514C11.3381 139.331 12.9031 143.291 16.0329 146.398ZM138.716 109.227V159.8H128.825V126.999L114.599 150.482H113.445L99.2184 127.072V159.8H89.2519V109.227H99.5054L114.019 133.141L128.462 109.227H138.716ZM195.757 128.372C200.666 128.372 204.687 129.829 207.817 132.742C210.947 135.656 212.512 139.425 212.512 144.05C212.512 148.723 210.947 152.513 207.817 155.43C204.687 158.343 200.669 159.8 195.757 159.8H176.404V109.227H208.177V118.763H186.368V128.372H195.754H195.757ZM195.757 150.479C197.73 150.479 199.367 149.91 200.666 148.78C201.965 147.647 202.615 146.072 202.615 144.047C202.615 142.025 201.965 140.459 200.666 139.35C199.367 138.24 197.73 137.687 195.757 137.687H186.37V150.476H195.757V150.479ZM272.656 109.224H282.619L267.453 145.854C263.411 155.68 256.768 160.329 247.523 159.797V150.479C250.221 150.717 252.396 150.346 254.061 149.357C255.719 148.372 257.106 146.767 258.212 144.554L241.678 109.224H251.641L262.689 133.643L272.653 109.224H272.656ZM350.421 150.261H355.838V169.478H345.875V159.797H317.926V169.478H307.963V150.261H312.872C315.664 146.359 317.06 140.652 317.06 133.138V109.224H350.421V150.261ZM323.558 150.261H340.455V118.545H327.023V133.283C327.023 140.604 325.866 146.262 323.558 150.261ZM413.961 160.81C406.357 160.81 400.073 158.28 395.115 153.223C390.158 148.166 387.68 141.931 387.68 134.51C387.68 127.045 390.158 120.797 395.115 115.765C400.076 110.732 406.357 108.214 413.961 108.214C418.535 108.214 422.761 109.287 426.634 111.43C430.51 113.573 433.531 116.475 435.697 120.135L427.105 125.119C425.855 122.855 424.072 121.084 421.761 119.809C419.45 118.533 416.852 117.895 413.961 117.895C409.051 117.895 405.094 119.437 402.082 122.517C399.073 125.6 397.568 129.599 397.568 134.51C397.568 139.377 399.073 143.348 402.082 146.431C405.091 149.514 409.051 151.056 413.961 151.056C416.852 151.056 419.462 150.418 421.797 149.143C424.133 147.867 425.903 146.12 427.105 143.905L435.697 148.889C433.531 152.549 430.522 155.451 426.67 157.594C422.818 159.74 418.583 160.81 413.961 160.81ZM519.602 109.224V159.797H509.711V126.996L495.484 150.479H494.331L480.104 127.069V159.797H470.138V109.224H480.394L494.908 133.138L509.351 109.224H519.605H519.602ZM567.256 150.261H588.558V159.797H557.29V109.224H588.196V118.76H567.253V129.526H586.389V138.917H567.253V150.261H567.256ZM652.605 109.224H662.496V159.797H652.605V138.845H633.829V159.797H623.865V109.224H633.829V129.309H652.605V109.224ZM63.476 255.878H52.3554L36.685 232.831V255.878H26.7215V232.831L11.0511 255.878H0L17.5495 230.087L0.725104 205.305H11.7731L26.7215 227.847V205.305H36.685V227.847L51.6334 205.305H62.7539L45.857 230.087L63.476 255.878ZM126.583 255.878V225.027L104.919 255.878H97.3363V205.305H107.3V236.226L128.964 205.305H136.547V255.878H126.583ZM207.672 205.305V214.841H194.023V255.878H184.056V214.841H170.48V205.305H207.669H207.672ZM251.499 246.342H272.801V255.878H241.533V205.305H272.438V214.841H251.496V225.607H270.632V234.998H251.496V246.342H251.499ZM304.208 255.878V246.632C307.193 247.065 309.428 246.463 310.924 244.828C312.416 243.19 313.162 239.986 313.162 235.219V205.308H347.533V255.881H337.639V214.844H323.053V234.929C323.053 239.312 322.525 242.996 321.464 245.982C320.404 248.969 318.951 251.184 317.096 252.629C315.244 254.074 313.271 255.038 311.177 255.519C309.081 256.002 306.758 256.12 304.208 255.878ZM420.894 205.305V255.878H410.931V238.32H405.227L393.602 255.878H382.409L394.756 237.238C391.529 236.084 388.907 234.107 386.883 231.314C384.862 228.521 383.85 225.438 383.85 222.065C383.85 217.443 385.487 213.493 388.759 210.217C392.034 206.943 396.003 205.305 400.674 205.305H420.891H420.894ZM400.677 229.579H410.931V214.626H400.677C398.798 214.626 397.185 215.349 395.837 216.794C394.49 218.238 393.813 219.997 393.813 222.068C393.813 224.138 394.487 225.91 395.837 227.379C397.185 228.848 398.798 229.582 400.677 229.582V229.579Z" fill="white"/>
</svg>
