<svg width="268" height="40" viewBox="0 0 268 40" fill="none" xmlns="http://www.w3.org/2000/svg" data-v-ae8e5bae=""><path fill-rule="evenodd" clip-rule="evenodd" d="M70.9062 0.80957C81.4772 0.80957 90.0464 9.58307 90.0464 20.4049C90.0464 31.2267 81.4768 40.0002 70.9062 40.0002C60.3355 40.0002 51.7659 31.2267 51.7659 20.4049C51.7659 9.58307 60.3355 0.80957 70.9062 0.80957ZM70.9062 8.7072C76.9106 8.7072 81.7781 13.9441 81.7781 20.4049C81.7781 26.8652 76.9106 32.1026 70.9062 32.1026C64.9018 32.1026 60.0342 26.8657 60.0342 20.4049C60.0342 13.9441 64.9018 8.7072 70.9062 8.7072Z" fill="#008DD2" data-v-ae8e5bae=""></path> <path d="M124.995 10.9604H117.115V29.0376H124.995V10.9604Z" fill="#008DD2" data-v-ae8e5bae=""></path> <path d="M26.762 1.11572H18.8818V38.8825H26.762V1.11572Z" fill="#008DD2" data-v-ae8e5bae=""></path> <path d="M44.0903 20.8052H36.21V38.8823H44.0903V20.8052Z" fill="#008DD2" data-v-ae8e5bae=""></path> <path d="M107.606 1.11572H99.7254V38.8825H107.606V1.11572Z" fill="#008DD2" data-v-ae8e5bae=""></path> <path d="M142.059 1.11572H134.179V38.8825H142.059V1.11572Z" fill="#008DD2" data-v-ae8e5bae=""></path> <path d="M7.88025 1.11572H0V38.8825H7.88025V1.11572Z" fill="#008DD2" data-v-ae8e5bae=""></path> <path d="M176.109 7.94318H176.911V10.783H175.436V9.35236H170.521V1.87905H171.996V7.94318H174.635V1.87905H176.11V7.94318H176.109ZM186.41 9.35236V4.79342L183.204 9.35236H182.082V1.87905H183.557V6.44825L186.763 1.87905H187.885V9.35236H186.41H186.41ZM200.354 3.53388C200.974 4.06762 201.284 4.76171 201.284 5.6157C201.284 6.46969 200.974 7.16378 200.354 7.69753C199.735 8.23127 198.904 8.54794 197.864 8.64755V9.51226H196.422V8.64755C195.374 8.5408 194.545 8.22234 193.932 7.69217C193.319 7.16155 193.013 6.46969 193.013 5.6157C193.013 4.76171 193.319 4.06941 193.932 3.53924C194.545 3.00907 195.374 2.69061 196.422 2.58386V1.71915H197.864V2.58386C198.904 2.68301 199.734 3.00013 200.354 3.53388ZM197.864 7.30269C199.161 7.15306 199.809 6.59073 199.809 5.6157C199.809 4.63352 199.161 4.06762 197.864 3.91799V7.30269ZM194.477 5.6157C194.477 6.59073 195.125 7.14949 196.422 7.29197V3.92916C195.125 4.07119 194.477 4.63352 194.477 5.6157ZM209.19 1.87905C209.91 1.87905 210.515 2.12113 211.007 2.60485C211.498 3.08902 211.744 3.68306 211.744 4.38787C211.744 5.09268 211.498 5.68716 211.007 6.17088C210.515 6.6546 209.91 6.89669 209.19 6.89669H207.876V9.35191H206.401V1.8786H209.19V1.87905ZM209.19 5.51967C209.504 5.51967 209.764 5.41114 209.97 5.19407C210.177 4.97699 210.28 4.70811 210.28 4.38787C210.28 4.06047 210.177 3.79025 209.97 3.57675C209.764 3.36326 209.504 3.25651 209.19 3.25651H207.876V5.51967H209.19ZM223.134 8.37554C222.379 9.12635 221.46 9.50198 220.377 9.50198C219.295 9.50198 218.377 9.12635 217.626 8.37554C216.874 7.62472 216.499 6.70463 216.499 5.6157C216.499 4.52677 216.874 3.60668 217.626 2.85587C218.377 2.10505 219.295 1.72942 220.377 1.72942C221.46 1.72942 222.379 2.10505 223.134 2.85587C223.889 3.60668 224.267 4.52677 224.267 5.6157C224.267 6.70463 223.889 7.62472 223.134 8.37554ZM218.657 7.37192C219.12 7.83107 219.694 8.06065 220.377 8.06065C221.061 8.06065 221.635 7.83107 222.098 7.37192C222.561 6.91277 222.793 6.32766 222.793 5.6157C222.793 4.90419 222.561 4.31685 222.098 3.85412C221.635 3.3914 221.061 3.16003 220.377 3.16003C219.693 3.16003 219.12 3.3914 218.657 3.85412C218.194 4.31685 217.962 4.90374 217.962 5.6157C217.962 6.32766 218.194 6.91277 218.657 7.37192ZM234.012 5.47724C234.667 5.85421 234.995 6.42369 234.995 7.18522C234.995 7.81857 234.771 8.33802 234.322 8.74357C233.873 9.14913 233.321 9.35236 232.666 9.35236H229.492V1.87905H232.441C233.082 1.87905 233.622 2.07646 234.06 2.47175C234.498 2.86658 234.717 3.3704 234.717 3.98231C234.717 4.60136 234.482 5.09982 234.012 5.47724ZM232.441 3.25651H230.967V4.90062H232.441C232.669 4.90062 232.86 4.82245 233.013 4.66568C233.166 4.50935 233.243 4.31372 233.243 4.07834C233.243 3.8434 233.168 3.64777 233.018 3.49144C232.868 3.33512 232.676 3.25651 232.441 3.25651ZM232.666 7.97534C232.915 7.97534 233.122 7.89137 233.285 7.72432C233.449 7.55683 233.531 7.34512 233.531 7.08919C233.531 6.84041 233.449 6.63182 233.285 6.46478C233.122 6.29773 232.915 6.21376 232.666 6.21376H230.966V7.97534H232.666ZM246.438 8.37554C245.683 9.12635 244.764 9.50198 243.681 9.50198C242.599 9.50198 241.681 9.12635 240.93 8.37554C240.178 7.62472 239.803 6.70463 239.803 5.6157C239.803 4.52677 240.178 3.60668 240.93 2.85587C241.681 2.10505 242.599 1.72942 243.681 1.72942C244.764 1.72942 245.683 2.10505 246.438 2.85587C247.193 3.60668 247.571 4.52677 247.571 5.6157C247.571 6.70463 247.193 7.62472 246.438 8.37554ZM241.961 7.37192C242.424 7.83107 242.998 8.06065 243.682 8.06065C244.365 8.06065 244.939 7.83107 245.402 7.37192C245.865 6.91277 246.097 6.32766 246.097 5.6157C246.097 4.90419 245.865 4.31685 245.402 3.85412C244.939 3.3914 244.365 3.16003 243.682 3.16003C242.998 3.16003 242.424 3.3914 241.961 3.85412C241.498 4.31685 241.266 4.90374 241.266 5.6157C241.266 6.32766 241.498 6.91277 241.961 7.37192ZM254.142 1.19612V0H257.241V1.19612H254.142ZM257.123 9.3528V4.79387L253.918 9.3528H252.796V1.87949H254.27V6.4487L257.476 1.87949H258.598V9.3528H257.124H257.123ZM176.814 22.574C176.059 23.3248 175.14 23.7005 174.057 23.7005C172.975 23.7005 172.057 23.3248 171.306 22.574C170.554 21.8232 170.179 20.9031 170.179 19.8142C170.179 18.7253 170.554 17.8052 171.306 17.0543C172.057 16.3035 172.975 15.9279 174.057 15.9279C175.14 15.9279 176.059 16.3035 176.814 17.0543C177.57 17.8052 177.947 18.7253 177.947 19.8142C177.947 20.9031 177.57 21.8232 176.814 22.574ZM172.337 21.5704C172.8 22.0296 173.374 22.2591 174.057 22.2591C174.741 22.2591 175.315 22.0296 175.778 21.5704C176.241 21.1112 176.473 20.5261 176.473 19.8142C176.473 19.1027 176.241 18.5153 175.778 18.0526C175.315 17.5899 174.741 17.3585 174.057 17.3585C173.373 17.3585 172.8 17.5899 172.337 18.0526C171.874 18.5153 171.642 19.1022 171.642 19.8142C171.642 20.5261 171.874 21.1112 172.337 21.5704ZM190.492 16.0775V23.5508H189.028V18.7038L186.923 22.1738H186.752L184.647 18.7145V23.5508H183.172V16.0775H184.689L186.837 19.6114L188.974 16.0775H190.492ZM198.933 18.9066C199.659 18.9066 200.254 19.1219 200.717 19.5524C201.18 19.983 201.412 20.54 201.412 21.2234C201.412 21.9139 201.18 22.474 200.717 22.905C200.254 23.3356 199.659 23.5508 198.933 23.5508H196.069V16.0775H200.77V17.4867H197.543V18.9066H198.932H198.933ZM198.933 22.1734C199.224 22.1734 199.467 22.0894 199.659 21.9224C199.851 21.7549 199.947 21.5222 199.947 21.2229C199.947 20.9241 199.851 20.6927 199.659 20.5288C199.467 20.3649 199.224 20.2832 198.933 20.2832H197.544V22.1729H198.933V22.1734ZM210.312 16.0771H211.786L209.542 21.49C208.944 22.9421 207.961 23.629 206.593 23.5504V22.1734C206.992 22.2087 207.314 22.1537 207.56 22.0077C207.806 21.8621 208.011 21.6249 208.174 21.2979L205.728 16.0771H207.202L208.837 19.6855L210.311 16.0771H210.312ZM221.82 22.1412H222.621V24.981H221.147V23.5504H217.011V24.981H215.537V22.1412H216.263C216.676 21.5646 216.883 20.7213 216.883 19.611V16.0771H221.82V22.1412ZM217.844 22.1412H220.345V17.4545H218.357V19.6324C218.357 20.7142 218.186 21.5503 217.844 22.1412ZM231.222 23.7C230.097 23.7 229.167 23.3262 228.433 22.5789C227.7 21.8317 227.333 20.9103 227.333 19.8137C227.333 18.7105 227.7 17.7873 228.433 17.0436C229.167 16.3 230.097 15.9279 231.222 15.9279C231.899 15.9279 232.524 16.0865 233.097 16.4031C233.671 16.7198 234.118 17.1486 234.439 17.6895L233.167 18.426C232.982 18.0915 232.718 17.8297 232.376 17.6412C232.034 17.4528 231.65 17.3585 231.222 17.3585C230.496 17.3585 229.91 17.5863 229.464 18.0414C229.019 18.497 228.796 19.0879 228.796 19.8137C228.796 20.5328 229.019 21.1197 229.464 21.5753C229.909 22.0309 230.496 22.2587 231.222 22.2587C231.65 22.2587 232.036 22.1644 232.382 21.976C232.727 21.7875 232.989 21.5293 233.167 21.2019L234.439 21.9384C234.118 22.4793 233.673 22.9081 233.103 23.2248C232.533 23.5419 231.906 23.7 231.222 23.7ZM246.855 16.0771V23.5504H245.391V18.7034L243.286 22.1734H243.115L241.01 18.7141V23.5504H239.535V16.0771H241.053L243.2 19.611L245.338 16.0771H246.855H246.855ZM253.906 22.1412H257.059V23.5504H252.432V16.0771H257.005V17.4863H253.906V19.0772H256.738V20.4649H253.906V22.1412H253.906ZM266.536 16.0771H268V23.5504H266.536V20.4542H263.758V23.5504H262.283V16.0771H263.758V19.0451H266.536V16.0771ZM179.358 37.7484H177.712L175.393 34.3427V37.7484H173.919V34.3427L171.6 37.7484H169.965L172.562 33.9372L170.072 30.2751H171.707L173.919 33.6062V30.2751H175.393V33.6062L177.605 30.2751H179.251L176.751 33.9372L179.358 37.7484ZM188.696 37.7484V33.1895L185.49 37.7484H184.368V30.2751H185.843V34.8443L189.049 30.2751H190.171V37.7484H188.696ZM200.696 30.2751V31.6843H198.676V37.7484H197.201V31.6843H195.192V30.2751H200.695H200.696ZM207.181 36.3393H210.333V37.7484H205.706V30.2751H210.28V31.6843H207.181V33.2752H210.012V34.663H207.181V36.3393H207.181ZM214.981 37.7484V36.3821C215.423 36.446 215.753 36.3571 215.975 36.1155C216.196 35.8734 216.306 35.4 216.306 34.6956V30.2756H221.392V37.7489H219.928V31.6847H217.77V34.6527C217.77 35.3004 217.691 35.8448 217.535 36.2861C217.378 36.7274 217.163 37.0548 216.888 37.2683C216.614 37.4818 216.322 37.6243 216.012 37.6953C215.702 37.7667 215.358 37.7842 214.981 37.7484ZM232.248 30.2751V37.7484H230.774V35.1539H229.93L228.209 37.7484H226.553L228.38 34.9939C227.903 34.8233 227.515 34.5312 227.215 34.1185C226.916 33.7058 226.766 33.2502 226.766 32.7518C226.766 32.0689 227.009 31.4851 227.493 31.0009C227.977 30.5172 228.565 30.2751 229.256 30.2751H232.248H232.248ZM229.256 33.8621H230.774V31.6526H229.256C228.978 31.6526 228.739 31.7593 228.54 31.9728C228.341 32.1863 228.241 32.4463 228.241 32.7522C228.241 33.0582 228.34 33.3199 228.54 33.537C228.739 33.7541 228.978 33.8626 229.256 33.8626V33.8621Z" fill="#2B2A29" data-v-ae8e5bae=""></path></svg>