<svg width="186" height="28" viewBox="0 0 186 28" fill="none" xmlns="http://www.w3.org/2000/svg">
<path fill-rule="evenodd" clip-rule="evenodd" d="M49.2112 0.56665C56.5478 0.56665 62.4951 6.7081 62.4951 14.2834C62.4951 21.8587 56.5475 28.0001 49.2112 28.0001C41.8749 28.0001 35.9273 21.8587 35.9273 14.2834C35.9273 6.7081 41.8749 0.56665 49.2112 0.56665ZM49.2112 6.09499C53.3784 6.09499 56.7567 9.76085 56.7567 14.2834C56.7567 18.8056 53.3784 22.4718 49.2112 22.4718C45.044 22.4718 41.6658 18.8059 41.6658 14.2834C41.6658 9.76085 45.044 6.09499 49.2112 6.09499Z" fill="#008DD2"/>
<path d="M86.7504 7.67229H81.2813V20.3263H86.7504V7.67229Z" fill="#008DD2"/>
<path d="M13.1045 0.781106H18.5737V27.2178H13.1045V0.781106Z" fill="#008DD2"/>
<path d="M30.5999 14.5635H25.1308V27.2175H30.5999V14.5635Z" fill="#008DD2"/>
<path d="M69.2127 0.781106H74.6819V27.2178H69.2127V0.781106Z" fill="#008DD2"/>
<path d="M98.5934 0.781106H93.1243V27.2178H98.5934V0.781106Z" fill="#008DD2"/>
<path d="M0 0.781046H5.46912V27.2178H0V0.781046Z" fill="#008DD2"/>
<path d="M122.225 5.56023H122.782V7.54808H121.758V6.54665H118.347V1.31533H119.37V5.56023H121.202V1.31533H122.226V5.56023H122.225ZM129.374 6.54665V3.3554L127.149 6.54665H126.371V1.31533H127.394V4.51378L129.619 1.31533H130.398V6.54665H129.375H129.374ZM139.052 2.47371C139.482 2.84733 139.697 3.3332 139.697 3.93099C139.697 4.52878 139.482 5.01465 139.052 5.38827C138.622 5.76189 138.046 5.98356 137.324 6.05328V6.65858H136.323V6.05328C135.596 5.97856 135.02 5.75564 134.595 5.38452C134.169 5.01308 133.957 4.52878 133.957 3.93099C133.957 3.3332 134.169 2.84858 134.595 2.47747C135.02 2.10635 135.596 1.88342 136.323 1.8087V1.2034H137.324V1.8087C138.046 1.87811 138.622 2.10009 139.052 2.47371ZM137.324 5.11188C138.223 5.00714 138.674 4.61351 138.674 3.93099C138.674 3.24347 138.224 2.84733 137.324 2.7426V5.11188ZM134.973 3.93099C134.973 4.61351 135.423 5.00464 136.323 5.10438V2.75041C135.423 2.84984 134.973 3.24347 134.973 3.93099ZM145.184 1.31533C145.684 1.31533 146.104 1.48479 146.445 1.82339C146.786 2.16231 146.957 2.57814 146.957 3.07151C146.957 3.56487 146.786 3.98102 146.445 4.31962C146.104 4.65822 145.684 4.82768 145.184 4.82768H144.272V6.54634H143.249V1.31502H145.184V1.31533ZM145.184 3.86377C145.402 3.86377 145.582 3.7878 145.726 3.63585C145.869 3.4839 145.941 3.29568 145.941 3.07151C145.941 2.84233 145.869 2.65318 145.726 2.50373C145.582 2.35428 145.402 2.27956 145.184 2.27956H144.272V3.86377H145.184ZM154.862 5.86288C154.338 6.38845 153.7 6.65139 152.949 6.65139C152.197 6.65139 151.56 6.38845 151.039 5.86288C150.517 5.33731 150.257 4.69324 150.257 3.93099C150.257 3.16874 150.517 2.52468 151.039 1.99911C151.56 1.47354 152.197 1.21059 152.949 1.21059C153.7 1.21059 154.338 1.47354 154.862 1.99911C155.386 2.52468 155.648 3.16874 155.648 3.93099C155.648 4.69324 155.386 5.33731 154.862 5.86288ZM151.755 5.16034C152.076 5.48175 152.474 5.64246 152.949 5.64246C153.423 5.64246 153.821 5.48175 154.143 5.16034C154.464 4.83894 154.625 4.42936 154.625 3.93099C154.625 3.43293 154.464 3.02179 154.143 2.69789C153.821 2.37398 153.423 2.21202 152.949 2.21202C152.474 2.21202 152.076 2.37398 151.755 2.69789C151.433 3.02179 151.272 3.43262 151.272 3.93099C151.272 4.42936 151.433 4.83894 151.755 5.16034ZM162.411 3.83407C162.866 4.09795 163.094 4.49658 163.094 5.02965C163.094 5.473 162.938 5.83661 162.627 6.1205C162.315 6.40439 161.932 6.54665 161.477 6.54665H159.274V1.31533H161.321C161.766 1.31533 162.141 1.45353 162.445 1.73022C162.749 2.00661 162.901 2.35928 162.901 2.78762C162.901 3.22096 162.738 3.56988 162.411 3.83407ZM161.321 2.27956H160.298V3.43043H161.321C161.479 3.43043 161.612 3.37572 161.718 3.26598C161.824 3.15655 161.878 3.01961 161.878 2.85484C161.878 2.69038 161.826 2.55344 161.722 2.44401C161.618 2.33458 161.484 2.27956 161.321 2.27956ZM161.477 5.58274C161.65 5.58274 161.793 5.52396 161.907 5.40703C162.021 5.28978 162.077 5.14158 162.077 4.96243C162.077 4.78829 162.021 4.64228 161.907 4.52534C161.793 4.40841 161.65 4.34963 161.477 4.34963H160.298V5.58274H161.477ZM171.036 5.86288C170.512 6.38845 169.874 6.65139 169.122 6.65139C168.371 6.65139 167.734 6.38845 167.213 5.86288C166.691 5.33731 166.43 4.69324 166.43 3.93099C166.43 3.16874 166.691 2.52468 167.213 1.99911C167.734 1.47354 168.371 1.21059 169.122 1.21059C169.874 1.21059 170.511 1.47354 171.036 1.99911C171.56 2.52468 171.822 3.16874 171.822 3.93099C171.822 4.69324 171.56 5.33731 171.036 5.86288ZM167.928 5.16034C168.25 5.48175 168.648 5.64246 169.123 5.64246C169.597 5.64246 169.995 5.48175 170.317 5.16034C170.638 4.83894 170.799 4.42936 170.799 3.93099C170.799 3.43293 170.638 3.02179 170.317 2.69789C169.995 2.37398 169.597 2.21202 169.123 2.21202C168.648 2.21202 168.25 2.37398 167.928 2.69789C167.607 3.02179 167.446 3.43262 167.446 3.93099C167.446 4.42936 167.607 4.83894 167.928 5.16034ZM176.382 0.837286V0H178.533V0.837286H176.382ZM178.452 6.54696V3.35571L176.227 6.54696H175.448V1.31565H176.471V4.51409L178.696 1.31565H179.475V6.54696H178.452H178.452ZM122.715 15.8018C122.191 16.3274 121.553 16.5903 120.801 16.5903C120.05 16.5903 119.413 16.3274 118.892 15.8018C118.37 15.2762 118.109 14.6322 118.109 13.8699C118.109 13.1077 118.37 12.4636 118.892 11.938C119.413 11.4125 120.05 11.1495 120.801 11.1495C121.553 11.1495 122.191 11.4125 122.715 11.938C123.239 12.4636 123.501 13.1077 123.501 13.8699C123.501 14.6322 123.239 15.2762 122.715 15.8018ZM119.607 15.0993C119.929 15.4207 120.327 15.5814 120.801 15.5814C121.276 15.5814 121.674 15.4207 121.995 15.0993C122.317 14.7779 122.478 14.3683 122.478 13.8699C122.478 13.3719 122.317 12.9607 121.995 12.6368C121.674 12.3129 121.276 12.151 120.801 12.151C120.327 12.151 119.928 12.3129 119.607 12.6368C119.286 12.9607 119.125 13.3716 119.125 13.8699C119.125 14.3683 119.286 14.7779 119.607 15.0993ZM132.207 11.2543V16.4856H131.191V13.0927L129.73 15.5217H129.612L128.151 13.1002V16.4856H127.127V11.2543H128.18L129.671 13.728L131.154 11.2543H132.207ZM138.065 13.2346C138.569 13.2346 138.982 13.3853 139.304 13.6867C139.625 13.9881 139.786 14.378 139.786 14.8564C139.786 15.3397 139.625 15.7318 139.304 16.0335C138.982 16.3349 138.57 16.4856 138.065 16.4856H136.078V11.2543H139.341V12.2407H137.101V13.2346H138.065H138.065ZM138.065 15.5214C138.268 15.5214 138.436 15.4626 138.569 15.3457C138.703 15.2284 138.77 15.0655 138.77 14.856C138.77 14.6469 138.703 14.4849 138.569 14.3702C138.436 14.2554 138.268 14.1982 138.065 14.1982H137.101V15.5211H138.065V15.5214ZM145.963 11.254H146.986L145.429 15.043C145.013 16.0594 144.331 16.5403 143.382 16.4853V15.5214C143.659 15.5461 143.882 15.5076 144.053 15.4054C144.223 15.3034 144.366 15.1374 144.479 14.9086L142.781 11.254H143.805L144.939 13.7799L145.963 11.254H145.963ZM153.949 15.4989H154.506V17.4867H153.483V16.4853H150.612V17.4867H149.589V15.4989H150.093C150.38 15.0952 150.523 14.5049 150.523 13.7277V11.254H153.949V15.4989ZM151.191 15.4989H152.926V12.2182H151.546V13.7427C151.546 14.4999 151.428 15.0852 151.191 15.4989ZM160.475 16.59C159.694 16.59 159.049 16.3283 158.54 15.8053C158.03 15.2822 157.776 14.6372 157.776 13.8696C157.776 13.0974 158.03 12.4511 158.54 11.9305C159.049 11.41 159.694 11.1495 160.475 11.1495C160.945 11.1495 161.379 11.2605 161.777 11.4822C162.175 11.7039 162.485 12.004 162.707 12.3826L161.825 12.8982C161.697 12.664 161.514 12.4808 161.276 12.3489C161.039 12.2169 160.772 12.151 160.475 12.151C159.971 12.151 159.564 12.3104 159.255 12.629C158.946 12.9479 158.792 13.3616 158.792 13.8696C158.792 14.373 158.946 14.7838 159.255 15.1027C159.564 15.4216 159.971 15.5811 160.475 15.5811C160.772 15.5811 161.04 15.5151 161.28 15.3832C161.52 15.2512 161.702 15.0705 161.825 14.8413L162.707 15.3569C162.485 15.7355 162.176 16.0357 161.78 16.2573C161.385 16.4793 160.95 16.59 160.475 16.59ZM171.325 11.254V16.4853H170.309V13.0924L168.848 15.5214H168.729L167.268 13.0999V16.4853H166.245V11.254H167.298L168.788 13.7277L170.272 11.254H171.325H171.325ZM176.219 15.4989H178.407V16.4853H175.195V11.254H178.369V12.2404H176.218V13.3541H178.184V14.3255H176.218V15.4989H176.219ZM184.984 11.254H186V16.4853H184.984V14.318H183.056V16.4853H182.033V11.254H183.056V13.3315H184.984V11.254ZM124.48 26.4239H123.338L121.728 24.0399V26.4239H120.705V24.0399L119.096 26.4239H117.961L119.763 23.756L118.035 21.1926H119.17L120.705 23.5244V21.1926H121.728V23.5244L123.264 21.1926H124.406L122.67 23.756L124.48 26.4239ZM130.961 26.4239V23.2326L128.736 26.4239H127.957V21.1926H128.981V24.391L131.205 21.1926H131.984V26.4239H130.961ZM139.289 21.1926V22.179H137.887V26.4239H136.864V22.179H135.469V21.1926H139.289H139.289ZM143.79 25.4375H145.978V26.4239H142.766V21.1926H145.941V22.179H143.79V23.2927H145.755V24.2641H143.79V25.4375H143.79ZM149.203 26.4239V25.4675C149.51 25.5122 149.739 25.45 149.893 25.2808C150.046 25.1114 150.123 24.78 150.123 24.2869V21.1929H153.653V26.4242H152.637V22.1793H151.139V24.2569C151.139 24.7102 151.084 25.0914 150.976 25.4003C150.867 25.7092 150.717 25.9383 150.527 26.0878C150.337 26.2372 150.134 26.337 149.919 26.3867C149.704 26.4367 149.465 26.4489 149.203 26.4239ZM161.187 21.1926V26.4239H160.164V24.6077H159.578L158.384 26.4239H157.235L158.503 24.4958C158.171 24.3763 157.902 24.1719 157.694 23.883C157.487 23.5941 157.383 23.2752 157.383 22.9262C157.383 22.4482 157.551 22.0396 157.887 21.7006C158.223 21.362 158.631 21.1926 159.111 21.1926H161.187H161.187ZM159.111 23.7035H160.164V22.1568H159.111C158.918 22.1568 158.752 22.2315 158.614 22.381C158.475 22.5304 158.406 22.7124 158.406 22.9266C158.406 23.1407 158.475 23.3239 158.614 23.4759C158.752 23.6278 158.918 23.7038 159.111 23.7038V23.7035Z" fill="#0B2836"/>
</svg>
