<svg width="134" height="20" viewBox="0 0 134 20" fill="none" xmlns="http://www.w3.org/2000/svg">
<path fill-rule="evenodd" clip-rule="evenodd" d="M35.2769 0.404297C40.5361 0.404297 44.7994 4.79105 44.7994 10.202C44.7994 15.6129 40.5359 19.9996 35.2769 19.9996C30.0178 19.9996 25.7544 15.6129 25.7544 10.202C25.7544 4.79105 30.0178 0.404297 35.2769 0.404297ZM35.2769 4.35311C38.2641 4.35311 40.6858 6.97158 40.6858 10.202C40.6858 13.4321 38.2641 16.0508 35.2769 16.0508C32.2896 16.0508 29.8679 13.4323 29.8679 10.202C29.8679 6.97158 32.2896 4.35311 35.2769 4.35311Z" fill="#008DD2"/>
<path d="M62.1867 5.47975H58.2662V14.5183H62.1867V5.47975Z" fill="#008DD2"/>
<path d="M9.39394 0.557479H13.3145V19.4409H9.39394V0.557479Z" fill="#008DD2"/>
<path d="M21.9354 10.402H18.0149V19.4406H21.9354V10.402Z" fill="#008DD2"/>
<path d="M49.6149 0.557479H53.5354V19.4409H49.6149V0.557479Z" fill="#008DD2"/>
<path d="M70.6763 0.557479H66.7558V19.4409H70.6763V0.557479Z" fill="#008DD2"/>
<path d="M0 0.557436H3.92052V19.4408H0V0.557436Z" fill="#008DD2"/>
<path d="M87.6168 3.97159H88.0156V5.39148H87.2818V4.67618H84.8364V0.939523H85.5701V3.97159H86.8833V0.939523H87.617V3.97159H87.6168ZM92.7415 4.67618V2.39671L91.1465 4.67618H90.5883V0.939523H91.322V3.22413L92.917 0.939523H93.4752V4.67618H92.7417H92.7415ZM99.6788 1.76694C99.9871 2.03381 100.141 2.38086 100.141 2.80785C100.141 3.23485 99.9873 3.58189 99.6788 3.84876C99.3706 4.11563 98.9576 4.27397 98.44 4.32377V4.75613H97.7225V4.32377C97.2014 4.2704 96.7885 4.11117 96.4836 3.84608C96.1787 3.58077 96.0266 3.23485 96.0266 2.80785C96.0266 2.38086 96.1789 2.0347 96.4836 1.76962C96.7885 1.50453 97.2014 1.3453 97.7225 1.29193V0.859573H98.44V1.29193C98.9576 1.34151 99.3704 1.50007 99.6788 1.76694ZM98.44 3.65134C99.085 3.57653 99.4077 3.29537 99.4077 2.80785C99.4077 2.31676 99.0852 2.03381 98.44 1.959V3.65134ZM96.7547 2.80785C96.7547 3.29537 97.0772 3.57474 97.7225 3.64598V1.96458C97.0775 2.0356 96.7547 2.31676 96.7547 2.80785ZM104.075 0.939523C104.433 0.939523 104.734 1.06056 104.979 1.30242C105.223 1.54451 105.346 1.84153 105.346 2.19393C105.346 2.54634 105.223 2.84358 104.979 3.08544C104.734 3.3273 104.433 3.44834 104.075 3.44834H103.421V4.67595H102.687V0.9393H104.075V0.939523ZM104.075 2.75984C104.231 2.75984 104.36 2.70557 104.463 2.59703C104.566 2.4885 104.617 2.35406 104.617 2.19393C104.617 2.03024 104.566 1.89513 104.463 1.78838C104.36 1.68163 104.231 1.62825 104.075 1.62825H103.421V2.75984H104.075ZM111.012 4.18777C110.637 4.56318 110.179 4.75099 109.641 4.75099C109.102 4.75099 108.646 4.56318 108.272 4.18777C107.898 3.81236 107.711 3.35231 107.711 2.80785C107.711 2.26339 107.898 1.80334 108.272 1.42793C108.646 1.05253 109.102 0.86471 109.641 0.86471C110.179 0.86471 110.637 1.05253 111.012 1.42793C111.388 1.80334 111.576 2.26339 111.576 2.80785C111.576 3.35231 111.388 3.81236 111.012 4.18777ZM108.785 3.68596C109.015 3.91554 109.301 4.03033 109.641 4.03033C109.981 4.03033 110.266 3.91554 110.497 3.68596C110.727 3.45638 110.842 3.16383 110.842 2.80785C110.842 2.4521 110.727 2.15842 110.497 1.92706C110.266 1.6957 109.981 1.58002 109.641 1.58002C109.3 1.58002 109.015 1.6957 108.785 1.92706C108.554 2.15842 108.439 2.45187 108.439 2.80785C108.439 3.16383 108.554 3.45638 108.785 3.68596ZM116.424 2.73862C116.75 2.92711 116.913 3.21184 116.913 3.59261C116.913 3.90928 116.802 4.16901 116.578 4.37179C116.355 4.57457 116.08 4.67618 115.754 4.67618H114.175V0.939523H115.643C115.961 0.939523 116.23 1.03823 116.448 1.23587C116.666 1.43329 116.775 1.6852 116.775 1.99116C116.775 2.30068 116.658 2.54991 116.424 2.73862ZM115.643 1.62825H114.909V2.45031H115.643C115.756 2.45031 115.851 2.41123 115.927 2.33284C116.003 2.25468 116.041 2.15686 116.041 2.03917C116.041 1.9217 116.004 1.82389 115.93 1.74572C115.855 1.66756 115.759 1.62825 115.643 1.62825ZM115.754 3.98767C115.878 3.98767 115.981 3.94569 116.062 3.86216C116.144 3.77842 116.185 3.67256 116.185 3.5446C116.185 3.4202 116.144 3.31591 116.062 3.23239C115.981 3.14887 115.878 3.10688 115.754 3.10688H114.909V3.98767H115.754ZM122.606 4.18777C122.231 4.56318 121.773 4.75099 121.235 4.75099C120.696 4.75099 120.24 4.56318 119.866 4.18777C119.492 3.81236 119.305 3.35231 119.305 2.80785C119.305 2.26339 119.492 1.80334 119.866 1.42793C120.24 1.05253 120.696 0.86471 121.235 0.86471C121.773 0.86471 122.23 1.05253 122.606 1.42793C122.982 1.80334 123.17 2.26339 123.17 2.80785C123.17 3.35231 122.982 3.81236 122.606 4.18777ZM120.379 3.68596C120.609 3.91554 120.895 4.03033 121.235 4.03033C121.575 4.03033 121.861 3.91554 122.091 3.68596C122.321 3.45638 122.436 3.16383 122.436 2.80785C122.436 2.4521 122.321 2.15842 122.091 1.92706C121.86 1.6957 121.575 1.58002 121.235 1.58002C120.895 1.58002 120.609 1.6957 120.379 1.92706C120.148 2.15842 120.033 2.45187 120.033 2.80785C120.033 3.16383 120.148 3.45638 120.379 3.68596ZM126.439 0.598061V0H127.981V0.598061H126.439ZM127.922 4.6764V2.39693L126.327 4.6764H125.769V0.939747H126.503V3.22435L128.098 0.939747H128.656V4.6764H127.923H127.922ZM87.9675 11.287C87.5919 11.6624 87.1346 11.8502 86.5959 11.8502C86.0572 11.8502 85.6008 11.6624 85.2269 11.287C84.8531 10.9116 84.6662 10.4516 84.6662 9.90709C84.6662 9.36263 84.8531 8.90258 85.2269 8.52717C85.6008 8.15177 86.0572 7.96395 86.5959 7.96395C87.1346 7.96395 87.5919 8.15177 87.9675 8.52717C88.3432 8.90258 88.5311 9.36263 88.5311 9.90709C88.5311 10.4516 88.3432 10.9116 87.9675 11.287ZM85.7401 10.7852C85.9705 11.0148 86.2558 11.1296 86.5959 11.1296C86.9362 11.1296 87.2216 11.0148 87.452 10.7852C87.6824 10.5556 87.7976 10.2631 87.7976 9.90709C87.7976 9.55134 87.6824 9.25767 87.452 9.0263C87.2216 8.79494 86.9362 8.67926 86.5959 8.67926C86.2556 8.67926 85.9703 8.79494 85.7401 9.0263C85.5096 9.25767 85.3944 9.55111 85.3944 9.90709C85.3944 10.2631 85.5096 10.5556 85.7401 10.7852ZM94.7721 8.03876V11.7754H94.0439V9.35191L92.9966 11.0869H92.9116L91.8643 9.35727V11.7754H91.1305V8.03876H91.8854L92.9539 9.8057L94.0173 8.03876H94.7721ZM98.9716 9.4533C99.333 9.4533 99.629 9.56094 99.8594 9.77622C100.09 9.99151 100.205 10.27 100.205 10.6117C100.205 10.9569 100.09 11.237 99.8594 11.4525C99.629 11.6678 99.3332 11.7754 98.9716 11.7754H97.5468V8.03876H99.8859V8.74335H98.2803V9.4533H98.9713H98.9716ZM98.9716 11.0867C99.1168 11.0867 99.2374 11.0447 99.333 10.9612C99.4286 10.8774 99.4764 10.7611 99.4764 10.6115C99.4764 10.4621 99.4286 10.3464 99.333 10.2644C99.2374 10.1825 99.1168 10.1416 98.9716 10.1416H98.2805V11.0865H98.9716V11.0867ZM104.633 8.03854H105.366L104.25 10.745C103.952 11.471 103.463 11.8145 102.783 11.7752V11.0867C102.981 11.1043 103.141 11.0769 103.264 11.0038C103.386 10.931 103.488 10.8124 103.57 10.649L102.352 8.03854H103.086L103.899 9.84277L104.633 8.03854H104.633ZM110.358 11.0706H110.757V12.4905H110.023V11.7752H107.966V12.4905H107.232V11.0706H107.594C107.799 10.7823 107.902 10.3607 107.902 9.80548V8.03854H110.358V11.0706ZM108.38 11.0706H109.624V8.72727H108.636V9.8162C108.636 10.3571 108.55 10.7752 108.38 11.0706ZM115.036 11.85C114.476 11.85 114.014 11.6631 113.649 11.2895C113.284 10.9158 113.101 10.4551 113.101 9.90687C113.101 9.35526 113.284 8.89365 113.649 8.52181C114.014 8.14998 114.476 7.96395 115.036 7.96395C115.373 7.96395 115.684 8.04323 115.969 8.20157C116.254 8.3599 116.477 8.5743 116.636 8.84474L116.004 9.213C115.912 9.04573 115.78 8.91486 115.61 8.82062C115.44 8.72638 115.249 8.67926 115.036 8.67926C114.675 8.67926 114.383 8.79315 114.161 9.02072C113.94 9.24851 113.829 9.54397 113.829 9.90687C113.829 10.2664 113.94 10.5599 114.161 10.7877C114.383 11.0154 114.675 11.1293 115.036 11.1293C115.249 11.1293 115.441 11.0822 115.613 10.988C115.785 10.8937 115.915 10.7647 116.004 10.601L116.636 10.9692C116.477 11.2397 116.255 11.4541 115.972 11.6124C115.688 11.771 115.376 11.85 115.036 11.85ZM122.813 8.03854V11.7752H122.085V9.35169L121.038 11.0867H120.953L119.906 9.35705V11.7752H119.172V8.03854H119.927L120.995 9.80548L122.059 8.03854H122.814H122.813ZM126.322 11.0706H127.89V11.7752H125.588V8.03854H127.863V8.74313H126.322V9.53861H127.73V10.2325H126.322V11.0706H126.322ZM132.605 8.03854H133.333V11.7752H132.605V10.2271H131.223V11.7752H130.489V8.03854H131.223V9.52253H132.605V8.03854ZM89.2329 18.8742H88.4142L87.2605 17.1714V18.8742H86.527V17.1714L85.3733 18.8742H84.5597L85.8517 16.9686L84.6131 15.1376H85.4264L86.527 16.8031V15.1376H87.2605V16.8031L88.361 15.1376H89.1797L87.9357 16.9686L89.2329 18.8742ZM93.8789 18.8742V16.5947L92.284 18.8742H91.7257V15.1376H92.4592V17.4222L94.0542 15.1376H94.6124V18.8742H93.8789ZM99.8488 15.1376V15.8421H98.8439V18.8742H98.1101V15.8421H97.1106V15.1376H99.8485H99.8488ZM103.075 18.1696H104.644V18.8742H102.342V15.1376H104.617V15.8421H103.075V16.6376H104.484V17.3315H103.075V18.1696H103.075ZM106.956 18.8742V18.1911C107.176 18.223 107.34 18.1786 107.45 18.0577C107.56 17.9367 107.615 17.7 107.615 17.3478V15.1378H110.145V18.8744H109.417V15.8424H108.343V17.3264C108.343 17.6502 108.304 17.9224 108.226 18.1431C108.148 18.3637 108.041 18.5274 107.905 18.6341C107.768 18.7409 107.623 18.8121 107.469 18.8476C107.315 18.8834 107.144 18.8921 106.956 18.8742ZM115.546 15.1376V18.8742H114.813V17.5769H114.393L113.537 18.8742H112.713L113.622 17.497C113.385 17.4117 113.191 17.2656 113.042 17.0593C112.894 16.8529 112.819 16.6251 112.819 16.3759C112.819 16.0344 112.94 15.7425 113.181 15.5005C113.422 15.2586 113.714 15.1376 114.058 15.1376H115.546H115.546ZM114.058 16.9311H114.813V15.8263H114.058C113.92 15.8263 113.801 15.8797 113.702 15.9864C113.603 16.0932 113.553 16.2231 113.553 16.3761C113.553 16.5291 113.602 16.66 113.702 16.7685C113.801 16.877 113.92 16.9313 114.058 16.9313V16.9311Z" fill="#0B2836"/>
</svg>
