<svg width="960" height="267" viewBox="0 0 960 267" fill="none" xmlns="http://www.w3.org/2000/svg">
<path fill-rule="evenodd" clip-rule="evenodd" d="M479.165 1.089C550.601 1.089 608.509 60.4611 608.509 133.695C608.509 206.928 550.598 266.3 479.165 266.3C407.731 266.3 349.82 206.928 349.82 133.695C349.82 60.4611 407.731 1.089 479.165 1.089ZM479.165 54.5339C519.741 54.5339 552.634 89.9734 552.634 133.695C552.634 177.413 519.741 212.856 479.165 212.856C438.588 212.856 405.695 177.416 405.695 133.695C405.695 89.9734 438.588 54.5339 479.165 54.5339Z" fill="white"/>
<path d="M844.682 66.6206H791.429V188.953H844.682V66.6206Z" fill="white"/>
<path d="M180.851 0H127.598V255.576H180.851V0Z" fill="white"/>
<path d="M297.951 133.241H244.699V255.573H297.951V133.241Z" fill="white"/>
<path d="M727.171 0H673.918V255.576H727.171V0Z" fill="white"/>
<path d="M960 0H906.747V255.576H960V0Z" fill="white"/>
<path d="M53.2526 0H0V255.576H53.2526V0Z" fill="white"/>
</svg>
