<svg width="20" height="20" viewBox="0 0 20 20" fill="none" xmlns="http://www.w3.org/2000/svg">
<path fill-rule="evenodd" clip-rule="evenodd" d="M3 3C3 1.34315 4.34315 0 6 0H14C15.6569 0 17 1.34315 17 3V19C17 19.5523 16.5523 20 16 20H4C3.44772 20 3 19.5523 3 19V3ZM6 2C5.44772 2 5 2.44772 5 3V18H15V3C15 2.44772 14.5523 2 14 2H6Z" fill="#AEC1CC"/>
<path fill-rule="evenodd" clip-rule="evenodd" d="M1 19C1 18.4477 1.44772 18 2 18H4C4.55228 18 5 18.4477 5 19C5 19.5523 4.55228 20 4 20H2C1.44772 20 1 19.5523 1 19ZM15 19C15 18.4477 15.4477 18 16 18H18C18.5523 18 19 18.4477 19 19C19 19.5523 18.5523 20 18 20H16C15.4477 20 15 19.5523 15 19Z" fill="#AEC1CC"/>
<path fill-rule="evenodd" clip-rule="evenodd" d="M3 13C3 12.4477 3.44772 12 4 12H16C16.5523 12 17 12.4477 17 13C17 13.5523 16.5523 14 16 14H4C3.44772 14 3 13.5523 3 13Z" fill="#AEC1CC"/>
<path fill-rule="evenodd" clip-rule="evenodd" d="M7 5C7 4.44772 7.44772 4 8 4H12C12.5523 4 13 4.44772 13 5C13 5.55228 12.5523 6 12 6H8C7.44772 6 7 5.55228 7 5ZM7 9C7 8.44772 7.44772 8 8 8H12C12.5523 8 13 8.44772 13 9C13 9.55228 12.5523 10 12 10H8C7.44772 10 7 9.55228 7 9Z" fill="#AEC1CC"/>
<path fill-rule="evenodd" clip-rule="evenodd" d="M8 12C8.55228 12 9 12.4477 9 13V19C9 19.5523 8.55228 20 8 20C7.44772 20 7 19.5523 7 19V13C7 12.4477 7.44772 12 8 12Z" fill="#AEC1CC"/>
<path fill-rule="evenodd" clip-rule="evenodd" d="M12 12C12.5523 12 13 12.4477 13 13V19C13 19.5523 12.5523 20 12 20C11.4477 20 11 19.5523 11 19V13C11 12.4477 11.4477 12 12 12Z" fill="#AEC1CC"/>
</svg>