<svg width="20" height="20" viewBox="0 0 20 20" fill="none" xmlns="http://www.w3.org/2000/svg">
<path fill-rule="evenodd" clip-rule="evenodd" d="M3 6C3.55228 6 4 6.44772 4 7V15C4 15.5523 4.44772 16 5 16H15C15.5523 16 16 15.5523 16 15V7C16 6.44772 16.4477 6 17 6C17.5523 6 18 6.44772 18 7V15C18 16.6569 16.6569 18 15 18H5C3.34315 18 2 16.6569 2 15V7C2 6.44772 2.44772 6 3 6ZM7 11C7 10.4477 7.44772 10 8 10H12C12.5523 10 13 10.4477 13 11C13 11.5523 12.5523 12 12 12H8C7.44772 12 7 11.5523 7 11Z" fill="#AEC1CC"/>
<path fill-rule="evenodd" clip-rule="evenodd" d="M1 4C1 2.89543 1.89543 2 3 2H17C18.1046 2 19 2.89543 19 4V6C19 7.10457 18.1046 8 17 8H3C1.89543 8 1 7.10457 1 6V4ZM17 4H3V6H17V4Z" fill="#AEC1CC"/>
</svg>