<svg width="20" height="20" viewBox="0 0 20 20" fill="none" xmlns="http://www.w3.org/2000/svg">
            <path fill-rule="evenodd" clip-rule="evenodd" d="M10.0025 3C8.34565 3 7.0025 4.34315 7.0025 6C7.0025 7.65685 8.34565 9 10.0025 9C11.6594 9 13.0025 7.65685 13.0025 6C13.0025 4.34315 11.6594 3 10.0025 3ZM5.0025 6C5.0025 3.23858 7.24108 1 10.0025 1C12.7639 1 15.0025 3.23858 15.0025 6C15.0025 8.76142 12.7639 11 10.0025 11C7.24108 11 5.0025 8.76142 5.0025 6Z" fill="#AEC1CC"/>
            <path fill-rule="evenodd" clip-rule="evenodd" d="M9.59532 11.0045C9.74489 11.0068 9.88144 11.0089 10.0025 11.0089C10.1235 11.0089 10.2601 11.0068 10.4096 11.0045C11.3775 10.9897 12.8905 10.9666 14.2738 11.447C15.1027 11.7349 15.9234 12.211 16.5954 12.991C17.268 13.7718 17.7439 14.802 17.9686 16.1228C18.2583 17.8262 16.7666 19 15.3374 19H4.66751C3.23835 19 1.74669 17.8262 2.0364 16.1228C2.26103 14.802 2.73696 13.7718 3.40957 12.991C4.08153 12.211 4.90226 11.7349 5.73113 11.447C7.11448 10.9666 8.62749 10.9897 9.59532 11.0045ZM4.92486 14.2964C4.52731 14.7579 4.1821 15.4349 4.00809 16.4581C3.98867 16.5723 4.01969 16.6833 4.12659 16.791C4.24213 16.9074 4.4355 17 4.66751 17H15.3374C15.5694 17 15.7628 16.9074 15.8784 16.791C15.9853 16.6833 16.0163 16.5723 15.9969 16.4581C15.8229 15.4349 15.4776 14.7579 15.0801 14.2964C14.6819 13.8341 14.1835 13.5328 13.6176 13.3363C12.5975 12.982 11.4827 12.9943 10.4921 13.0052C10.325 13.0071 10.1615 13.0089 10.0025 13.0089C9.8435 13.0089 9.67994 13.0071 9.51285 13.0052C8.52227 12.9943 7.40746 12.982 6.3873 13.3363C5.82149 13.5328 5.32305 13.8341 4.92486 14.2964Z" fill="#AEC1CC"/>
            </svg>